<svg width="31" height="31" viewBox="0 0 31 31" fill="none" xmlns="http://www.w3.org/2000/svg">
<path d="M19.0518 7.29663H11.9467C9.0001 7.29663 6.60156 9.6178 6.60156 12.4694V19.3453C6.60156 22.1969 9.0001 24.518 11.9467 24.518H19.0518C21.9985 24.518 24.397 22.1969 24.397 19.3453V12.4694C24.392 9.6178 21.9985 7.29663 19.0518 7.29663ZM15.5722 20.1482C13.1586 20.1482 11.1925 18.2455 11.1925 15.9098C11.1925 13.574 13.1586 11.6713 15.5722 11.6713C17.9858 11.6713 19.9519 13.574 19.9519 15.9098C19.9519 18.2455 17.9858 20.1482 15.5722 20.1482ZM20.2084 12.3915C19.6301 12.3915 19.1675 11.939 19.1675 11.3842C19.1675 10.8246 19.6351 10.3769 20.2084 10.3769C20.7866 10.3769 21.2492 10.8295 21.2492 11.3842C21.2543 11.939 20.7866 12.3915 20.2084 12.3915Z" fill="#676767"/>
<path d="M15.5715 13.1897C14.0227 13.1897 12.7656 14.4062 12.7656 15.905C12.7656 17.4038 14.0227 18.6204 15.5715 18.6204C17.1202 18.6204 18.3773 17.4038 18.3773 15.905C18.3773 14.4111 17.1202 13.1897 15.5715 13.1897Z" fill="#676767"/>
</svg>
