<svg width="31" height="31" viewBox="0 0 31 31" fill="none" xmlns="http://www.w3.org/2000/svg">
<path fill-rule="evenodd" clip-rule="evenodd" d="M14.3363 18.5859C14.3208 18.6357 14.3054 18.6805 14.2951 18.7204C13.6263 21.2546 13.5543 21.8172 12.8649 22.9971C12.5356 23.5548 12.1703 24.0875 11.7587 24.5953C11.7124 24.6551 11.6713 24.7248 11.5787 24.7099C11.4758 24.6899 11.4706 24.6003 11.4603 24.5256C11.3523 23.7539 11.2906 22.9822 11.3163 22.2055C11.3523 21.1948 11.4809 20.8463 12.8288 15.3547C12.8494 15.2701 12.8288 15.2004 12.798 15.1257C12.4739 14.2843 12.4121 13.4279 12.6951 12.5566C13.3073 10.6846 15.499 10.5402 15.8848 12.0836C16.1215 13.0396 15.4938 14.2892 15.0154 16.1413C14.6192 17.6649 16.4713 18.7502 18.0611 17.64C19.5222 16.6143 20.0932 14.1498 19.9852 12.4072C19.7743 8.92707 15.8334 8.17527 13.333 9.2955C10.4674 10.58 9.81402 14.0154 11.1105 15.5887C11.2751 15.7878 11.3986 15.9123 11.3472 16.1115C11.2648 16.4251 11.1877 16.7438 11.1002 17.0574C11.0333 17.2914 10.8327 17.3761 10.5909 17.2815C10.1124 17.0973 9.71627 16.7985 9.39215 16.4152C8.29118 15.0958 7.97735 12.4919 9.43331 10.2863C11.0436 7.84169 14.0379 6.85589 16.7749 7.15462C20.0418 7.51309 22.1048 9.67389 22.4907 12.1235C22.6656 13.2387 22.5421 15.992 20.9215 17.9387C19.0591 20.1742 16.0392 20.3235 14.6501 18.9494C14.5266 18.8349 14.4443 18.7104 14.3363 18.5859Z" fill="#676767"/>
</svg>
