<svg width="31" height="31" viewBox="0 0 31 31" fill="none" xmlns="http://www.w3.org/2000/svg">
<path d="M25.7431 9.64998C25.0844 9.93846 24.3632 10.1106 23.6517 10.2269C23.9882 10.1711 24.4834 9.58483 24.6806 9.34288C24.9835 8.97995 25.2335 8.56584 25.3729 8.11916C25.3922 8.08194 25.4066 8.04006 25.3681 8.01215C25.3248 7.99354 25.2912 8.00284 25.2575 8.02145C24.469 8.43091 23.6517 8.7287 22.7814 8.93808C22.7093 8.95669 22.6564 8.93808 22.6083 8.8962C22.5362 8.8171 22.4689 8.74265 22.3919 8.68217C22.0265 8.37973 21.6323 8.14243 21.1899 7.97027C20.6082 7.74228 19.9735 7.64456 19.3485 7.68179C18.7378 7.71901 18.1417 7.88652 17.6032 8.16104C17.0598 8.43556 16.579 8.8171 16.1944 9.27309C15.7953 9.74769 15.502 10.3107 15.353 10.9063C15.2088 11.4786 15.2184 12.0462 15.3097 12.6279C15.3241 12.7256 15.3145 12.7349 15.2232 12.7256C11.8191 12.237 8.99678 11.0552 6.70816 8.53327C6.60719 8.4216 6.5543 8.4216 6.47257 8.54258C5.4725 9.9943 5.95811 12.3301 7.20819 13.4793C7.37648 13.6329 7.54476 13.7864 7.73227 13.926C7.66496 13.94 6.83317 13.8516 6.08792 13.4793C5.98696 13.4189 5.93888 13.4514 5.92926 13.5631C5.91964 13.7213 5.93407 13.8655 5.95811 14.033C6.15043 15.508 7.20339 16.8713 8.6506 17.4018C8.82369 17.4716 9.01121 17.532 9.19872 17.5646C8.87177 17.6344 8.5304 17.6856 7.58803 17.6111C7.47264 17.5879 7.42456 17.6484 7.47264 17.7554C8.17942 19.6259 9.71318 20.1842 10.8575 20.5006C11.0113 20.5285 11.1652 20.5285 11.3191 20.5611C11.3094 20.5751 11.2998 20.5751 11.2902 20.589C10.9104 21.152 9.59298 21.5661 8.97755 21.7755C7.86209 22.1524 6.64566 22.3246 5.46769 22.2129C5.28018 22.185 5.2369 22.1896 5.18882 22.2129C5.13593 22.2455 5.18401 22.2873 5.24171 22.3339C5.48211 22.4874 5.72251 22.6223 5.97253 22.7526C6.72258 23.1388 7.50148 23.4413 8.31885 23.6599C12.5403 24.786 17.2906 23.9577 20.4591 20.9147C22.9449 18.5231 23.8199 15.2242 23.8199 11.9206C23.8199 11.7903 23.9786 11.7205 24.07 11.6507C24.719 11.1808 25.2383 10.6178 25.7239 9.98964C25.8345 9.85005 25.8345 9.72443 25.8345 9.67324C25.8345 9.66394 25.8345 9.65463 25.8345 9.65463C25.8297 9.5988 25.8249 9.61275 25.7431 9.64998Z" fill="white"/>
</svg>
